# xmcd
#
# Track frame offsets:
#	165
#	12555
#	26157
#	41830
#	56525
#	66875
#	81852
#	93585
#	108150
#	120255
#	134595
#
# Disc length: 1981 seconds
#
# Revision: 1
# Processed by: cddbd v1.4PL0 Copyright (c) Steve Scherf et al.
# Submitted via: audiograbber 1.80.04
#
DISCID=9407bb0b
DTITLE=John Lee Hooker - Golden Gotham Classics
DYEAR=1951
DGENRE=Blues
TTITLE0=House Rent Boogie
TTITLE1=Wandering Blues
TTITLE2=Questionnaire Blues
TTITLE3=Real Gone Gal
TTITLE4=Feed Her All Night
TTITLE5=My Daddy Was A Jockey
TTITLE6=Little Boy Blue
TTITLE7=How Long Must I Be Your Slave
TTITLE8=Ground Hog
TTITLE9=Mean Old Train
TTITLE10=Catfish
EXTD=
EXTT0=
EXTT1=
EXTT2=
EXTT3=
EXTT4=
EXTT5=
EXTT6=
EXTT7=
EXTT8=
EXTT9=
EXTT10=
PLAYORDER=
